G04 EAGLE Gerber RS-274X export*
G75*
%MOMM*%
%FSLAX34Y34*%
%LPD*%
%INBottom Copper*%
%IPPOS*%
%AMOC8*
5,1,8,0,0,1.08239X$1,22.5*%
G01*
%ADD10C,0.254000*%
%ADD11R,1.524000X1.524000*%
%ADD12P,1.649562X8X22.500000*%
%ADD13P,1.924489X8X112.500000*%
%ADD14R,1.778000X1.778000*%
%ADD15P,1.924489X8X22.500000*%


D10*
X28369Y523240D02*
X28373Y523603D01*
X28387Y523967D01*
X28409Y524330D01*
X28440Y524692D01*
X28480Y525053D01*
X28529Y525413D01*
X28587Y525772D01*
X28654Y526129D01*
X28729Y526485D01*
X28813Y526839D01*
X28906Y527190D01*
X29007Y527539D01*
X29117Y527886D01*
X29235Y528230D01*
X29361Y528570D01*
X29496Y528908D01*
X29640Y529242D01*
X29791Y529573D01*
X29950Y529899D01*
X30118Y530222D01*
X30293Y530540D01*
X30476Y530854D01*
X30667Y531164D01*
X30865Y531469D01*
X31071Y531768D01*
X31284Y532063D01*
X31504Y532352D01*
X31731Y532636D01*
X31965Y532914D01*
X32206Y533186D01*
X32453Y533453D01*
X32707Y533713D01*
X32967Y533967D01*
X33234Y534214D01*
X33506Y534455D01*
X33784Y534689D01*
X34068Y534916D01*
X34357Y535136D01*
X34652Y535349D01*
X34951Y535555D01*
X35256Y535753D01*
X35566Y535944D01*
X35880Y536127D01*
X36198Y536302D01*
X36521Y536470D01*
X36847Y536629D01*
X37178Y536780D01*
X37512Y536924D01*
X37850Y537059D01*
X38190Y537185D01*
X38534Y537303D01*
X38881Y537413D01*
X39230Y537514D01*
X39581Y537607D01*
X39935Y537691D01*
X40291Y537766D01*
X40648Y537833D01*
X41007Y537891D01*
X41367Y537940D01*
X41728Y537980D01*
X42090Y538011D01*
X42453Y538033D01*
X42817Y538047D01*
X43180Y538051D01*
X43543Y538047D01*
X43907Y538033D01*
X44270Y538011D01*
X44632Y537980D01*
X44993Y537940D01*
X45353Y537891D01*
X45712Y537833D01*
X46069Y537766D01*
X46425Y537691D01*
X46779Y537607D01*
X47130Y537514D01*
X47479Y537413D01*
X47826Y537303D01*
X48170Y537185D01*
X48510Y537059D01*
X48848Y536924D01*
X49182Y536780D01*
X49513Y536629D01*
X49839Y536470D01*
X50162Y536302D01*
X50480Y536127D01*
X50794Y535944D01*
X51104Y535753D01*
X51409Y535555D01*
X51708Y535349D01*
X52003Y535136D01*
X52292Y534916D01*
X52576Y534689D01*
X52854Y534455D01*
X53126Y534214D01*
X53393Y533967D01*
X53653Y533713D01*
X53907Y533453D01*
X54154Y533186D01*
X54395Y532914D01*
X54629Y532636D01*
X54856Y532352D01*
X55076Y532063D01*
X55289Y531768D01*
X55495Y531469D01*
X55693Y531164D01*
X55884Y530854D01*
X56067Y530540D01*
X56242Y530222D01*
X56410Y529899D01*
X56569Y529573D01*
X56720Y529242D01*
X56864Y528908D01*
X56999Y528570D01*
X57125Y528230D01*
X57243Y527886D01*
X57353Y527539D01*
X57454Y527190D01*
X57547Y526839D01*
X57631Y526485D01*
X57706Y526129D01*
X57773Y525772D01*
X57831Y525413D01*
X57880Y525053D01*
X57920Y524692D01*
X57951Y524330D01*
X57973Y523967D01*
X57987Y523603D01*
X57991Y523240D01*
X57987Y522877D01*
X57973Y522513D01*
X57951Y522150D01*
X57920Y521788D01*
X57880Y521427D01*
X57831Y521067D01*
X57773Y520708D01*
X57706Y520351D01*
X57631Y519995D01*
X57547Y519641D01*
X57454Y519290D01*
X57353Y518941D01*
X57243Y518594D01*
X57125Y518250D01*
X56999Y517910D01*
X56864Y517572D01*
X56720Y517238D01*
X56569Y516907D01*
X56410Y516581D01*
X56242Y516258D01*
X56067Y515940D01*
X55884Y515626D01*
X55693Y515316D01*
X55495Y515011D01*
X55289Y514712D01*
X55076Y514417D01*
X54856Y514128D01*
X54629Y513844D01*
X54395Y513566D01*
X54154Y513294D01*
X53907Y513027D01*
X53653Y512767D01*
X53393Y512513D01*
X53126Y512266D01*
X52854Y512025D01*
X52576Y511791D01*
X52292Y511564D01*
X52003Y511344D01*
X51708Y511131D01*
X51409Y510925D01*
X51104Y510727D01*
X50794Y510536D01*
X50480Y510353D01*
X50162Y510178D01*
X49839Y510010D01*
X49513Y509851D01*
X49182Y509700D01*
X48848Y509556D01*
X48510Y509421D01*
X48170Y509295D01*
X47826Y509177D01*
X47479Y509067D01*
X47130Y508966D01*
X46779Y508873D01*
X46425Y508789D01*
X46069Y508714D01*
X45712Y508647D01*
X45353Y508589D01*
X44993Y508540D01*
X44632Y508500D01*
X44270Y508469D01*
X43907Y508447D01*
X43543Y508433D01*
X43180Y508429D01*
X42817Y508433D01*
X42453Y508447D01*
X42090Y508469D01*
X41728Y508500D01*
X41367Y508540D01*
X41007Y508589D01*
X40648Y508647D01*
X40291Y508714D01*
X39935Y508789D01*
X39581Y508873D01*
X39230Y508966D01*
X38881Y509067D01*
X38534Y509177D01*
X38190Y509295D01*
X37850Y509421D01*
X37512Y509556D01*
X37178Y509700D01*
X36847Y509851D01*
X36521Y510010D01*
X36198Y510178D01*
X35880Y510353D01*
X35566Y510536D01*
X35256Y510727D01*
X34951Y510925D01*
X34652Y511131D01*
X34357Y511344D01*
X34068Y511564D01*
X33784Y511791D01*
X33506Y512025D01*
X33234Y512266D01*
X32967Y512513D01*
X32707Y512767D01*
X32453Y513027D01*
X32206Y513294D01*
X31965Y513566D01*
X31731Y513844D01*
X31504Y514128D01*
X31284Y514417D01*
X31071Y514712D01*
X30865Y515011D01*
X30667Y515316D01*
X30476Y515626D01*
X30293Y515940D01*
X30118Y516258D01*
X29950Y516581D01*
X29791Y516907D01*
X29640Y517238D01*
X29496Y517572D01*
X29361Y517910D01*
X29235Y518250D01*
X29117Y518594D01*
X29007Y518941D01*
X28906Y519290D01*
X28813Y519641D01*
X28729Y519995D01*
X28654Y520351D01*
X28587Y520708D01*
X28529Y521067D01*
X28480Y521427D01*
X28440Y521788D01*
X28409Y522150D01*
X28387Y522513D01*
X28373Y522877D01*
X28369Y523240D01*
X28369Y35560D02*
X28373Y35923D01*
X28387Y36287D01*
X28409Y36650D01*
X28440Y37012D01*
X28480Y37373D01*
X28529Y37733D01*
X28587Y38092D01*
X28654Y38449D01*
X28729Y38805D01*
X28813Y39159D01*
X28906Y39510D01*
X29007Y39859D01*
X29117Y40206D01*
X29235Y40550D01*
X29361Y40890D01*
X29496Y41228D01*
X29640Y41562D01*
X29791Y41893D01*
X29950Y42219D01*
X30118Y42542D01*
X30293Y42860D01*
X30476Y43174D01*
X30667Y43484D01*
X30865Y43789D01*
X31071Y44088D01*
X31284Y44383D01*
X31504Y44672D01*
X31731Y44956D01*
X31965Y45234D01*
X32206Y45506D01*
X32453Y45773D01*
X32707Y46033D01*
X32967Y46287D01*
X33234Y46534D01*
X33506Y46775D01*
X33784Y47009D01*
X34068Y47236D01*
X34357Y47456D01*
X34652Y47669D01*
X34951Y47875D01*
X35256Y48073D01*
X35566Y48264D01*
X35880Y48447D01*
X36198Y48622D01*
X36521Y48790D01*
X36847Y48949D01*
X37178Y49100D01*
X37512Y49244D01*
X37850Y49379D01*
X38190Y49505D01*
X38534Y49623D01*
X38881Y49733D01*
X39230Y49834D01*
X39581Y49927D01*
X39935Y50011D01*
X40291Y50086D01*
X40648Y50153D01*
X41007Y50211D01*
X41367Y50260D01*
X41728Y50300D01*
X42090Y50331D01*
X42453Y50353D01*
X42817Y50367D01*
X43180Y50371D01*
X43543Y50367D01*
X43907Y50353D01*
X44270Y50331D01*
X44632Y50300D01*
X44993Y50260D01*
X45353Y50211D01*
X45712Y50153D01*
X46069Y50086D01*
X46425Y50011D01*
X46779Y49927D01*
X47130Y49834D01*
X47479Y49733D01*
X47826Y49623D01*
X48170Y49505D01*
X48510Y49379D01*
X48848Y49244D01*
X49182Y49100D01*
X49513Y48949D01*
X49839Y48790D01*
X50162Y48622D01*
X50480Y48447D01*
X50794Y48264D01*
X51104Y48073D01*
X51409Y47875D01*
X51708Y47669D01*
X52003Y47456D01*
X52292Y47236D01*
X52576Y47009D01*
X52854Y46775D01*
X53126Y46534D01*
X53393Y46287D01*
X53653Y46033D01*
X53907Y45773D01*
X54154Y45506D01*
X54395Y45234D01*
X54629Y44956D01*
X54856Y44672D01*
X55076Y44383D01*
X55289Y44088D01*
X55495Y43789D01*
X55693Y43484D01*
X55884Y43174D01*
X56067Y42860D01*
X56242Y42542D01*
X56410Y42219D01*
X56569Y41893D01*
X56720Y41562D01*
X56864Y41228D01*
X56999Y40890D01*
X57125Y40550D01*
X57243Y40206D01*
X57353Y39859D01*
X57454Y39510D01*
X57547Y39159D01*
X57631Y38805D01*
X57706Y38449D01*
X57773Y38092D01*
X57831Y37733D01*
X57880Y37373D01*
X57920Y37012D01*
X57951Y36650D01*
X57973Y36287D01*
X57987Y35923D01*
X57991Y35560D01*
X57987Y35197D01*
X57973Y34833D01*
X57951Y34470D01*
X57920Y34108D01*
X57880Y33747D01*
X57831Y33387D01*
X57773Y33028D01*
X57706Y32671D01*
X57631Y32315D01*
X57547Y31961D01*
X57454Y31610D01*
X57353Y31261D01*
X57243Y30914D01*
X57125Y30570D01*
X56999Y30230D01*
X56864Y29892D01*
X56720Y29558D01*
X56569Y29227D01*
X56410Y28901D01*
X56242Y28578D01*
X56067Y28260D01*
X55884Y27946D01*
X55693Y27636D01*
X55495Y27331D01*
X55289Y27032D01*
X55076Y26737D01*
X54856Y26448D01*
X54629Y26164D01*
X54395Y25886D01*
X54154Y25614D01*
X53907Y25347D01*
X53653Y25087D01*
X53393Y24833D01*
X53126Y24586D01*
X52854Y24345D01*
X52576Y24111D01*
X52292Y23884D01*
X52003Y23664D01*
X51708Y23451D01*
X51409Y23245D01*
X51104Y23047D01*
X50794Y22856D01*
X50480Y22673D01*
X50162Y22498D01*
X49839Y22330D01*
X49513Y22171D01*
X49182Y22020D01*
X48848Y21876D01*
X48510Y21741D01*
X48170Y21615D01*
X47826Y21497D01*
X47479Y21387D01*
X47130Y21286D01*
X46779Y21193D01*
X46425Y21109D01*
X46069Y21034D01*
X45712Y20967D01*
X45353Y20909D01*
X44993Y20860D01*
X44632Y20820D01*
X44270Y20789D01*
X43907Y20767D01*
X43543Y20753D01*
X43180Y20749D01*
X42817Y20753D01*
X42453Y20767D01*
X42090Y20789D01*
X41728Y20820D01*
X41367Y20860D01*
X41007Y20909D01*
X40648Y20967D01*
X40291Y21034D01*
X39935Y21109D01*
X39581Y21193D01*
X39230Y21286D01*
X38881Y21387D01*
X38534Y21497D01*
X38190Y21615D01*
X37850Y21741D01*
X37512Y21876D01*
X37178Y22020D01*
X36847Y22171D01*
X36521Y22330D01*
X36198Y22498D01*
X35880Y22673D01*
X35566Y22856D01*
X35256Y23047D01*
X34951Y23245D01*
X34652Y23451D01*
X34357Y23664D01*
X34068Y23884D01*
X33784Y24111D01*
X33506Y24345D01*
X33234Y24586D01*
X32967Y24833D01*
X32707Y25087D01*
X32453Y25347D01*
X32206Y25614D01*
X31965Y25886D01*
X31731Y26164D01*
X31504Y26448D01*
X31284Y26737D01*
X31071Y27032D01*
X30865Y27331D01*
X30667Y27636D01*
X30476Y27946D01*
X30293Y28260D01*
X30118Y28578D01*
X29950Y28901D01*
X29791Y29227D01*
X29640Y29558D01*
X29496Y29892D01*
X29361Y30230D01*
X29235Y30570D01*
X29117Y30914D01*
X29007Y31261D01*
X28906Y31610D01*
X28813Y31961D01*
X28729Y32315D01*
X28654Y32671D01*
X28587Y33028D01*
X28529Y33387D01*
X28480Y33747D01*
X28440Y34108D01*
X28409Y34470D01*
X28387Y34833D01*
X28373Y35197D01*
X28369Y35560D01*
X858949Y33020D02*
X858953Y33383D01*
X858967Y33747D01*
X858989Y34110D01*
X859020Y34472D01*
X859060Y34833D01*
X859109Y35193D01*
X859167Y35552D01*
X859234Y35909D01*
X859309Y36265D01*
X859393Y36619D01*
X859486Y36970D01*
X859587Y37319D01*
X859697Y37666D01*
X859815Y38010D01*
X859941Y38350D01*
X860076Y38688D01*
X860220Y39022D01*
X860371Y39353D01*
X860530Y39679D01*
X860698Y40002D01*
X860873Y40320D01*
X861056Y40634D01*
X861247Y40944D01*
X861445Y41249D01*
X861651Y41548D01*
X861864Y41843D01*
X862084Y42132D01*
X862311Y42416D01*
X862545Y42694D01*
X862786Y42966D01*
X863033Y43233D01*
X863287Y43493D01*
X863547Y43747D01*
X863814Y43994D01*
X864086Y44235D01*
X864364Y44469D01*
X864648Y44696D01*
X864937Y44916D01*
X865232Y45129D01*
X865531Y45335D01*
X865836Y45533D01*
X866146Y45724D01*
X866460Y45907D01*
X866778Y46082D01*
X867101Y46250D01*
X867427Y46409D01*
X867758Y46560D01*
X868092Y46704D01*
X868430Y46839D01*
X868770Y46965D01*
X869114Y47083D01*
X869461Y47193D01*
X869810Y47294D01*
X870161Y47387D01*
X870515Y47471D01*
X870871Y47546D01*
X871228Y47613D01*
X871587Y47671D01*
X871947Y47720D01*
X872308Y47760D01*
X872670Y47791D01*
X873033Y47813D01*
X873397Y47827D01*
X873760Y47831D01*
X874123Y47827D01*
X874487Y47813D01*
X874850Y47791D01*
X875212Y47760D01*
X875573Y47720D01*
X875933Y47671D01*
X876292Y47613D01*
X876649Y47546D01*
X877005Y47471D01*
X877359Y47387D01*
X877710Y47294D01*
X878059Y47193D01*
X878406Y47083D01*
X878750Y46965D01*
X879090Y46839D01*
X879428Y46704D01*
X879762Y46560D01*
X880093Y46409D01*
X880419Y46250D01*
X880742Y46082D01*
X881060Y45907D01*
X881374Y45724D01*
X881684Y45533D01*
X881989Y45335D01*
X882288Y45129D01*
X882583Y44916D01*
X882872Y44696D01*
X883156Y44469D01*
X883434Y44235D01*
X883706Y43994D01*
X883973Y43747D01*
X884233Y43493D01*
X884487Y43233D01*
X884734Y42966D01*
X884975Y42694D01*
X885209Y42416D01*
X885436Y42132D01*
X885656Y41843D01*
X885869Y41548D01*
X886075Y41249D01*
X886273Y40944D01*
X886464Y40634D01*
X886647Y40320D01*
X886822Y40002D01*
X886990Y39679D01*
X887149Y39353D01*
X887300Y39022D01*
X887444Y38688D01*
X887579Y38350D01*
X887705Y38010D01*
X887823Y37666D01*
X887933Y37319D01*
X888034Y36970D01*
X888127Y36619D01*
X888211Y36265D01*
X888286Y35909D01*
X888353Y35552D01*
X888411Y35193D01*
X888460Y34833D01*
X888500Y34472D01*
X888531Y34110D01*
X888553Y33747D01*
X888567Y33383D01*
X888571Y33020D01*
X888567Y32657D01*
X888553Y32293D01*
X888531Y31930D01*
X888500Y31568D01*
X888460Y31207D01*
X888411Y30847D01*
X888353Y30488D01*
X888286Y30131D01*
X888211Y29775D01*
X888127Y29421D01*
X888034Y29070D01*
X887933Y28721D01*
X887823Y28374D01*
X887705Y28030D01*
X887579Y27690D01*
X887444Y27352D01*
X887300Y27018D01*
X887149Y26687D01*
X886990Y26361D01*
X886822Y26038D01*
X886647Y25720D01*
X886464Y25406D01*
X886273Y25096D01*
X886075Y24791D01*
X885869Y24492D01*
X885656Y24197D01*
X885436Y23908D01*
X885209Y23624D01*
X884975Y23346D01*
X884734Y23074D01*
X884487Y22807D01*
X884233Y22547D01*
X883973Y22293D01*
X883706Y22046D01*
X883434Y21805D01*
X883156Y21571D01*
X882872Y21344D01*
X882583Y21124D01*
X882288Y20911D01*
X881989Y20705D01*
X881684Y20507D01*
X881374Y20316D01*
X881060Y20133D01*
X880742Y19958D01*
X880419Y19790D01*
X880093Y19631D01*
X879762Y19480D01*
X879428Y19336D01*
X879090Y19201D01*
X878750Y19075D01*
X878406Y18957D01*
X878059Y18847D01*
X877710Y18746D01*
X877359Y18653D01*
X877005Y18569D01*
X876649Y18494D01*
X876292Y18427D01*
X875933Y18369D01*
X875573Y18320D01*
X875212Y18280D01*
X874850Y18249D01*
X874487Y18227D01*
X874123Y18213D01*
X873760Y18209D01*
X873397Y18213D01*
X873033Y18227D01*
X872670Y18249D01*
X872308Y18280D01*
X871947Y18320D01*
X871587Y18369D01*
X871228Y18427D01*
X870871Y18494D01*
X870515Y18569D01*
X870161Y18653D01*
X869810Y18746D01*
X869461Y18847D01*
X869114Y18957D01*
X868770Y19075D01*
X868430Y19201D01*
X868092Y19336D01*
X867758Y19480D01*
X867427Y19631D01*
X867101Y19790D01*
X866778Y19958D01*
X866460Y20133D01*
X866146Y20316D01*
X865836Y20507D01*
X865531Y20705D01*
X865232Y20911D01*
X864937Y21124D01*
X864648Y21344D01*
X864364Y21571D01*
X864086Y21805D01*
X863814Y22046D01*
X863547Y22293D01*
X863287Y22547D01*
X863033Y22807D01*
X862786Y23074D01*
X862545Y23346D01*
X862311Y23624D01*
X862084Y23908D01*
X861864Y24197D01*
X861651Y24492D01*
X861445Y24791D01*
X861247Y25096D01*
X861056Y25406D01*
X860873Y25720D01*
X860698Y26038D01*
X860530Y26361D01*
X860371Y26687D01*
X860220Y27018D01*
X860076Y27352D01*
X859941Y27690D01*
X859815Y28030D01*
X859697Y28374D01*
X859587Y28721D01*
X859486Y29070D01*
X859393Y29421D01*
X859309Y29775D01*
X859234Y30131D01*
X859167Y30488D01*
X859109Y30847D01*
X859060Y31207D01*
X859020Y31568D01*
X858989Y31930D01*
X858967Y32293D01*
X858953Y32657D01*
X858949Y33020D01*
X858949Y523240D02*
X858953Y523603D01*
X858967Y523967D01*
X858989Y524330D01*
X859020Y524692D01*
X859060Y525053D01*
X859109Y525413D01*
X859167Y525772D01*
X859234Y526129D01*
X859309Y526485D01*
X859393Y526839D01*
X859486Y527190D01*
X859587Y527539D01*
X859697Y527886D01*
X859815Y528230D01*
X859941Y528570D01*
X860076Y528908D01*
X860220Y529242D01*
X860371Y529573D01*
X860530Y529899D01*
X860698Y530222D01*
X860873Y530540D01*
X861056Y530854D01*
X861247Y531164D01*
X861445Y531469D01*
X861651Y531768D01*
X861864Y532063D01*
X862084Y532352D01*
X862311Y532636D01*
X862545Y532914D01*
X862786Y533186D01*
X863033Y533453D01*
X863287Y533713D01*
X863547Y533967D01*
X863814Y534214D01*
X864086Y534455D01*
X864364Y534689D01*
X864648Y534916D01*
X864937Y535136D01*
X865232Y535349D01*
X865531Y535555D01*
X865836Y535753D01*
X866146Y535944D01*
X866460Y536127D01*
X866778Y536302D01*
X867101Y536470D01*
X867427Y536629D01*
X867758Y536780D01*
X868092Y536924D01*
X868430Y537059D01*
X868770Y537185D01*
X869114Y537303D01*
X869461Y537413D01*
X869810Y537514D01*
X870161Y537607D01*
X870515Y537691D01*
X870871Y537766D01*
X871228Y537833D01*
X871587Y537891D01*
X871947Y537940D01*
X872308Y537980D01*
X872670Y538011D01*
X873033Y538033D01*
X873397Y538047D01*
X873760Y538051D01*
X874123Y538047D01*
X874487Y538033D01*
X874850Y538011D01*
X875212Y537980D01*
X875573Y537940D01*
X875933Y537891D01*
X876292Y537833D01*
X876649Y537766D01*
X877005Y537691D01*
X877359Y537607D01*
X877710Y537514D01*
X878059Y537413D01*
X878406Y537303D01*
X878750Y537185D01*
X879090Y537059D01*
X879428Y536924D01*
X879762Y536780D01*
X880093Y536629D01*
X880419Y536470D01*
X880742Y536302D01*
X881060Y536127D01*
X881374Y535944D01*
X881684Y535753D01*
X881989Y535555D01*
X882288Y535349D01*
X882583Y535136D01*
X882872Y534916D01*
X883156Y534689D01*
X883434Y534455D01*
X883706Y534214D01*
X883973Y533967D01*
X884233Y533713D01*
X884487Y533453D01*
X884734Y533186D01*
X884975Y532914D01*
X885209Y532636D01*
X885436Y532352D01*
X885656Y532063D01*
X885869Y531768D01*
X886075Y531469D01*
X886273Y531164D01*
X886464Y530854D01*
X886647Y530540D01*
X886822Y530222D01*
X886990Y529899D01*
X887149Y529573D01*
X887300Y529242D01*
X887444Y528908D01*
X887579Y528570D01*
X887705Y528230D01*
X887823Y527886D01*
X887933Y527539D01*
X888034Y527190D01*
X888127Y526839D01*
X888211Y526485D01*
X888286Y526129D01*
X888353Y525772D01*
X888411Y525413D01*
X888460Y525053D01*
X888500Y524692D01*
X888531Y524330D01*
X888553Y523967D01*
X888567Y523603D01*
X888571Y523240D01*
X888567Y522877D01*
X888553Y522513D01*
X888531Y522150D01*
X888500Y521788D01*
X888460Y521427D01*
X888411Y521067D01*
X888353Y520708D01*
X888286Y520351D01*
X888211Y519995D01*
X888127Y519641D01*
X888034Y519290D01*
X887933Y518941D01*
X887823Y518594D01*
X887705Y518250D01*
X887579Y517910D01*
X887444Y517572D01*
X887300Y517238D01*
X887149Y516907D01*
X886990Y516581D01*
X886822Y516258D01*
X886647Y515940D01*
X886464Y515626D01*
X886273Y515316D01*
X886075Y515011D01*
X885869Y514712D01*
X885656Y514417D01*
X885436Y514128D01*
X885209Y513844D01*
X884975Y513566D01*
X884734Y513294D01*
X884487Y513027D01*
X884233Y512767D01*
X883973Y512513D01*
X883706Y512266D01*
X883434Y512025D01*
X883156Y511791D01*
X882872Y511564D01*
X882583Y511344D01*
X882288Y511131D01*
X881989Y510925D01*
X881684Y510727D01*
X881374Y510536D01*
X881060Y510353D01*
X880742Y510178D01*
X880419Y510010D01*
X880093Y509851D01*
X879762Y509700D01*
X879428Y509556D01*
X879090Y509421D01*
X878750Y509295D01*
X878406Y509177D01*
X878059Y509067D01*
X877710Y508966D01*
X877359Y508873D01*
X877005Y508789D01*
X876649Y508714D01*
X876292Y508647D01*
X875933Y508589D01*
X875573Y508540D01*
X875212Y508500D01*
X874850Y508469D01*
X874487Y508447D01*
X874123Y508433D01*
X873760Y508429D01*
X873397Y508433D01*
X873033Y508447D01*
X872670Y508469D01*
X872308Y508500D01*
X871947Y508540D01*
X871587Y508589D01*
X871228Y508647D01*
X870871Y508714D01*
X870515Y508789D01*
X870161Y508873D01*
X869810Y508966D01*
X869461Y509067D01*
X869114Y509177D01*
X868770Y509295D01*
X868430Y509421D01*
X868092Y509556D01*
X867758Y509700D01*
X867427Y509851D01*
X867101Y510010D01*
X866778Y510178D01*
X866460Y510353D01*
X866146Y510536D01*
X865836Y510727D01*
X865531Y510925D01*
X865232Y511131D01*
X864937Y511344D01*
X864648Y511564D01*
X864364Y511791D01*
X864086Y512025D01*
X863814Y512266D01*
X863547Y512513D01*
X863287Y512767D01*
X863033Y513027D01*
X862786Y513294D01*
X862545Y513566D01*
X862311Y513844D01*
X862084Y514128D01*
X861864Y514417D01*
X861651Y514712D01*
X861445Y515011D01*
X861247Y515316D01*
X861056Y515626D01*
X860873Y515940D01*
X860698Y516258D01*
X860530Y516581D01*
X860371Y516907D01*
X860220Y517238D01*
X860076Y517572D01*
X859941Y517910D01*
X859815Y518250D01*
X859697Y518594D01*
X859587Y518941D01*
X859486Y519290D01*
X859393Y519641D01*
X859309Y519995D01*
X859234Y520351D01*
X859167Y520708D01*
X859109Y521067D01*
X859060Y521427D01*
X859020Y521788D01*
X858989Y522150D01*
X858967Y522513D01*
X858953Y522877D01*
X858949Y523240D01*
D11*
X236900Y108960D03*
D12*
X236900Y134360D03*
X262300Y108960D03*
X262300Y134360D03*
X287700Y108960D03*
X287700Y134360D03*
X313100Y108960D03*
X313100Y134360D03*
X338500Y108960D03*
X338500Y134360D03*
X363900Y108960D03*
X363900Y134360D03*
X389300Y108960D03*
X389300Y134360D03*
X414700Y108960D03*
X414700Y134360D03*
X440100Y108960D03*
X440100Y134360D03*
X465500Y108960D03*
X465500Y134360D03*
X490900Y108960D03*
X490900Y134360D03*
X516300Y108960D03*
X516300Y134360D03*
X541700Y108960D03*
X541700Y134360D03*
X567100Y108960D03*
X567100Y134360D03*
X592500Y108960D03*
X592500Y134360D03*
X617900Y108960D03*
X617900Y134360D03*
X643300Y108960D03*
X643300Y134360D03*
X668700Y108960D03*
X668700Y134360D03*
D11*
X236900Y362960D03*
D12*
X236900Y388360D03*
X262300Y362960D03*
X262300Y388360D03*
X287700Y362960D03*
X287700Y388360D03*
X313100Y362960D03*
X313100Y388360D03*
X338500Y362960D03*
X338500Y388360D03*
X363900Y362960D03*
X363900Y388360D03*
X389300Y362960D03*
X389300Y388360D03*
X414700Y362960D03*
X414700Y388360D03*
X440100Y362960D03*
X440100Y388360D03*
X465500Y362960D03*
X465500Y388360D03*
X490900Y362960D03*
X490900Y388360D03*
X516300Y362960D03*
X516300Y388360D03*
X541700Y362960D03*
X541700Y388360D03*
X567100Y362960D03*
X567100Y388360D03*
X592500Y362960D03*
X592500Y388360D03*
X617900Y362960D03*
X617900Y388360D03*
X643300Y362960D03*
X643300Y388360D03*
X668700Y362960D03*
X668700Y388360D03*
D13*
X457200Y480060D03*
D14*
X431800Y480060D03*
D13*
X482600Y480060D03*
X508000Y480060D03*
X533400Y480060D03*
X558800Y480060D03*
X254000Y480060D03*
D14*
X228600Y480060D03*
D13*
X279400Y480060D03*
X304800Y480060D03*
X330200Y480060D03*
X355600Y480060D03*
D15*
X101600Y353060D03*
D14*
X101600Y378460D03*
D15*
X101600Y327660D03*
X101600Y302260D03*
X800100Y353060D03*
D14*
X800100Y378460D03*
D15*
X800100Y327660D03*
X800100Y302260D03*
X800100Y276860D03*
M02*
