G04 EAGLE Gerber RS-274X export*
G75*
%MOMM*%
%FSLAX34Y34*%
%LPD*%
%INSoldermask Top*%
%IPPOS*%
%AMOC8*
5,1,8,0,0,1.08239X$1,22.5*%
G01*
%ADD10R,1.676400X1.676400*%
%ADD11P,1.814519X8X22.500000*%
%ADD12P,2.089446X8X112.500000*%
%ADD13R,1.930400X1.930400*%
%ADD14P,2.089446X8X22.500000*%
%ADD15C,0.609600*%
%ADD16C,1.168400*%


D10*
X236900Y108960D03*
D11*
X236900Y134360D03*
X262300Y108960D03*
X262300Y134360D03*
X287700Y108960D03*
X287700Y134360D03*
X313100Y108960D03*
X313100Y134360D03*
X338500Y108960D03*
X338500Y134360D03*
X363900Y108960D03*
X363900Y134360D03*
X389300Y108960D03*
X389300Y134360D03*
X414700Y108960D03*
X414700Y134360D03*
X440100Y108960D03*
X440100Y134360D03*
X465500Y108960D03*
X465500Y134360D03*
X490900Y108960D03*
X490900Y134360D03*
X516300Y108960D03*
X516300Y134360D03*
X541700Y108960D03*
X541700Y134360D03*
X567100Y108960D03*
X567100Y134360D03*
X592500Y108960D03*
X592500Y134360D03*
X617900Y108960D03*
X617900Y134360D03*
X643300Y108960D03*
X643300Y134360D03*
X668700Y108960D03*
X668700Y134360D03*
D10*
X236900Y362960D03*
D11*
X236900Y388360D03*
X262300Y362960D03*
X262300Y388360D03*
X287700Y362960D03*
X287700Y388360D03*
X313100Y362960D03*
X313100Y388360D03*
X338500Y362960D03*
X338500Y388360D03*
X363900Y362960D03*
X363900Y388360D03*
X389300Y362960D03*
X389300Y388360D03*
X414700Y362960D03*
X414700Y388360D03*
X440100Y362960D03*
X440100Y388360D03*
X465500Y362960D03*
X465500Y388360D03*
X490900Y362960D03*
X490900Y388360D03*
X516300Y362960D03*
X516300Y388360D03*
X541700Y362960D03*
X541700Y388360D03*
X567100Y362960D03*
X567100Y388360D03*
X592500Y362960D03*
X592500Y388360D03*
X617900Y362960D03*
X617900Y388360D03*
X643300Y362960D03*
X643300Y388360D03*
X668700Y362960D03*
X668700Y388360D03*
D12*
X457200Y480060D03*
D13*
X431800Y480060D03*
D12*
X482600Y480060D03*
X508000Y480060D03*
X533400Y480060D03*
X558800Y480060D03*
X254000Y480060D03*
D13*
X228600Y480060D03*
D12*
X279400Y480060D03*
X304800Y480060D03*
X330200Y480060D03*
X355600Y480060D03*
D14*
X101600Y353060D03*
D13*
X101600Y378460D03*
D14*
X101600Y327660D03*
X101600Y302260D03*
X800100Y353060D03*
D13*
X800100Y378460D03*
D14*
X800100Y327660D03*
X800100Y302260D03*
X800100Y276860D03*
D15*
X30480Y88900D02*
X30482Y89087D01*
X30489Y89274D01*
X30501Y89461D01*
X30517Y89647D01*
X30537Y89833D01*
X30562Y90018D01*
X30592Y90203D01*
X30626Y90387D01*
X30665Y90570D01*
X30708Y90752D01*
X30756Y90932D01*
X30808Y91112D01*
X30865Y91290D01*
X30925Y91467D01*
X30991Y91642D01*
X31060Y91816D01*
X31134Y91988D01*
X31212Y92158D01*
X31294Y92326D01*
X31380Y92492D01*
X31470Y92656D01*
X31564Y92817D01*
X31662Y92977D01*
X31764Y93133D01*
X31870Y93288D01*
X31980Y93439D01*
X32093Y93588D01*
X32210Y93734D01*
X32330Y93877D01*
X32454Y94017D01*
X32581Y94154D01*
X32712Y94288D01*
X32846Y94419D01*
X32983Y94546D01*
X33123Y94670D01*
X33266Y94790D01*
X33412Y94907D01*
X33561Y95020D01*
X33712Y95130D01*
X33867Y95236D01*
X34023Y95338D01*
X34183Y95436D01*
X34344Y95530D01*
X34508Y95620D01*
X34674Y95706D01*
X34842Y95788D01*
X35012Y95866D01*
X35184Y95940D01*
X35358Y96009D01*
X35533Y96075D01*
X35710Y96135D01*
X35888Y96192D01*
X36068Y96244D01*
X36248Y96292D01*
X36430Y96335D01*
X36613Y96374D01*
X36797Y96408D01*
X36982Y96438D01*
X37167Y96463D01*
X37353Y96483D01*
X37539Y96499D01*
X37726Y96511D01*
X37913Y96518D01*
X38100Y96520D01*
X38287Y96518D01*
X38474Y96511D01*
X38661Y96499D01*
X38847Y96483D01*
X39033Y96463D01*
X39218Y96438D01*
X39403Y96408D01*
X39587Y96374D01*
X39770Y96335D01*
X39952Y96292D01*
X40132Y96244D01*
X40312Y96192D01*
X40490Y96135D01*
X40667Y96075D01*
X40842Y96009D01*
X41016Y95940D01*
X41188Y95866D01*
X41358Y95788D01*
X41526Y95706D01*
X41692Y95620D01*
X41856Y95530D01*
X42017Y95436D01*
X42177Y95338D01*
X42333Y95236D01*
X42488Y95130D01*
X42639Y95020D01*
X42788Y94907D01*
X42934Y94790D01*
X43077Y94670D01*
X43217Y94546D01*
X43354Y94419D01*
X43488Y94288D01*
X43619Y94154D01*
X43746Y94017D01*
X43870Y93877D01*
X43990Y93734D01*
X44107Y93588D01*
X44220Y93439D01*
X44330Y93288D01*
X44436Y93133D01*
X44538Y92977D01*
X44636Y92817D01*
X44730Y92656D01*
X44820Y92492D01*
X44906Y92326D01*
X44988Y92158D01*
X45066Y91988D01*
X45140Y91816D01*
X45209Y91642D01*
X45275Y91467D01*
X45335Y91290D01*
X45392Y91112D01*
X45444Y90932D01*
X45492Y90752D01*
X45535Y90570D01*
X45574Y90387D01*
X45608Y90203D01*
X45638Y90018D01*
X45663Y89833D01*
X45683Y89647D01*
X45699Y89461D01*
X45711Y89274D01*
X45718Y89087D01*
X45720Y88900D01*
X45718Y88713D01*
X45711Y88526D01*
X45699Y88339D01*
X45683Y88153D01*
X45663Y87967D01*
X45638Y87782D01*
X45608Y87597D01*
X45574Y87413D01*
X45535Y87230D01*
X45492Y87048D01*
X45444Y86868D01*
X45392Y86688D01*
X45335Y86510D01*
X45275Y86333D01*
X45209Y86158D01*
X45140Y85984D01*
X45066Y85812D01*
X44988Y85642D01*
X44906Y85474D01*
X44820Y85308D01*
X44730Y85144D01*
X44636Y84983D01*
X44538Y84823D01*
X44436Y84667D01*
X44330Y84512D01*
X44220Y84361D01*
X44107Y84212D01*
X43990Y84066D01*
X43870Y83923D01*
X43746Y83783D01*
X43619Y83646D01*
X43488Y83512D01*
X43354Y83381D01*
X43217Y83254D01*
X43077Y83130D01*
X42934Y83010D01*
X42788Y82893D01*
X42639Y82780D01*
X42488Y82670D01*
X42333Y82564D01*
X42177Y82462D01*
X42017Y82364D01*
X41856Y82270D01*
X41692Y82180D01*
X41526Y82094D01*
X41358Y82012D01*
X41188Y81934D01*
X41016Y81860D01*
X40842Y81791D01*
X40667Y81725D01*
X40490Y81665D01*
X40312Y81608D01*
X40132Y81556D01*
X39952Y81508D01*
X39770Y81465D01*
X39587Y81426D01*
X39403Y81392D01*
X39218Y81362D01*
X39033Y81337D01*
X38847Y81317D01*
X38661Y81301D01*
X38474Y81289D01*
X38287Y81282D01*
X38100Y81280D01*
X37913Y81282D01*
X37726Y81289D01*
X37539Y81301D01*
X37353Y81317D01*
X37167Y81337D01*
X36982Y81362D01*
X36797Y81392D01*
X36613Y81426D01*
X36430Y81465D01*
X36248Y81508D01*
X36068Y81556D01*
X35888Y81608D01*
X35710Y81665D01*
X35533Y81725D01*
X35358Y81791D01*
X35184Y81860D01*
X35012Y81934D01*
X34842Y82012D01*
X34674Y82094D01*
X34508Y82180D01*
X34344Y82270D01*
X34183Y82364D01*
X34023Y82462D01*
X33867Y82564D01*
X33712Y82670D01*
X33561Y82780D01*
X33412Y82893D01*
X33266Y83010D01*
X33123Y83130D01*
X32983Y83254D01*
X32846Y83381D01*
X32712Y83512D01*
X32581Y83646D01*
X32454Y83783D01*
X32330Y83923D01*
X32210Y84066D01*
X32093Y84212D01*
X31980Y84361D01*
X31870Y84512D01*
X31764Y84667D01*
X31662Y84823D01*
X31564Y84983D01*
X31470Y85144D01*
X31380Y85308D01*
X31294Y85474D01*
X31212Y85642D01*
X31134Y85812D01*
X31060Y85984D01*
X30991Y86158D01*
X30925Y86333D01*
X30865Y86510D01*
X30808Y86688D01*
X30756Y86868D01*
X30708Y87048D01*
X30665Y87230D01*
X30626Y87413D01*
X30592Y87597D01*
X30562Y87782D01*
X30537Y87967D01*
X30517Y88153D01*
X30501Y88339D01*
X30489Y88526D01*
X30482Y88713D01*
X30480Y88900D01*
D16*
X38100Y88900D03*
D15*
X792480Y88900D02*
X792482Y89087D01*
X792489Y89274D01*
X792501Y89461D01*
X792517Y89647D01*
X792537Y89833D01*
X792562Y90018D01*
X792592Y90203D01*
X792626Y90387D01*
X792665Y90570D01*
X792708Y90752D01*
X792756Y90932D01*
X792808Y91112D01*
X792865Y91290D01*
X792925Y91467D01*
X792991Y91642D01*
X793060Y91816D01*
X793134Y91988D01*
X793212Y92158D01*
X793294Y92326D01*
X793380Y92492D01*
X793470Y92656D01*
X793564Y92817D01*
X793662Y92977D01*
X793764Y93133D01*
X793870Y93288D01*
X793980Y93439D01*
X794093Y93588D01*
X794210Y93734D01*
X794330Y93877D01*
X794454Y94017D01*
X794581Y94154D01*
X794712Y94288D01*
X794846Y94419D01*
X794983Y94546D01*
X795123Y94670D01*
X795266Y94790D01*
X795412Y94907D01*
X795561Y95020D01*
X795712Y95130D01*
X795867Y95236D01*
X796023Y95338D01*
X796183Y95436D01*
X796344Y95530D01*
X796508Y95620D01*
X796674Y95706D01*
X796842Y95788D01*
X797012Y95866D01*
X797184Y95940D01*
X797358Y96009D01*
X797533Y96075D01*
X797710Y96135D01*
X797888Y96192D01*
X798068Y96244D01*
X798248Y96292D01*
X798430Y96335D01*
X798613Y96374D01*
X798797Y96408D01*
X798982Y96438D01*
X799167Y96463D01*
X799353Y96483D01*
X799539Y96499D01*
X799726Y96511D01*
X799913Y96518D01*
X800100Y96520D01*
X800287Y96518D01*
X800474Y96511D01*
X800661Y96499D01*
X800847Y96483D01*
X801033Y96463D01*
X801218Y96438D01*
X801403Y96408D01*
X801587Y96374D01*
X801770Y96335D01*
X801952Y96292D01*
X802132Y96244D01*
X802312Y96192D01*
X802490Y96135D01*
X802667Y96075D01*
X802842Y96009D01*
X803016Y95940D01*
X803188Y95866D01*
X803358Y95788D01*
X803526Y95706D01*
X803692Y95620D01*
X803856Y95530D01*
X804017Y95436D01*
X804177Y95338D01*
X804333Y95236D01*
X804488Y95130D01*
X804639Y95020D01*
X804788Y94907D01*
X804934Y94790D01*
X805077Y94670D01*
X805217Y94546D01*
X805354Y94419D01*
X805488Y94288D01*
X805619Y94154D01*
X805746Y94017D01*
X805870Y93877D01*
X805990Y93734D01*
X806107Y93588D01*
X806220Y93439D01*
X806330Y93288D01*
X806436Y93133D01*
X806538Y92977D01*
X806636Y92817D01*
X806730Y92656D01*
X806820Y92492D01*
X806906Y92326D01*
X806988Y92158D01*
X807066Y91988D01*
X807140Y91816D01*
X807209Y91642D01*
X807275Y91467D01*
X807335Y91290D01*
X807392Y91112D01*
X807444Y90932D01*
X807492Y90752D01*
X807535Y90570D01*
X807574Y90387D01*
X807608Y90203D01*
X807638Y90018D01*
X807663Y89833D01*
X807683Y89647D01*
X807699Y89461D01*
X807711Y89274D01*
X807718Y89087D01*
X807720Y88900D01*
X807718Y88713D01*
X807711Y88526D01*
X807699Y88339D01*
X807683Y88153D01*
X807663Y87967D01*
X807638Y87782D01*
X807608Y87597D01*
X807574Y87413D01*
X807535Y87230D01*
X807492Y87048D01*
X807444Y86868D01*
X807392Y86688D01*
X807335Y86510D01*
X807275Y86333D01*
X807209Y86158D01*
X807140Y85984D01*
X807066Y85812D01*
X806988Y85642D01*
X806906Y85474D01*
X806820Y85308D01*
X806730Y85144D01*
X806636Y84983D01*
X806538Y84823D01*
X806436Y84667D01*
X806330Y84512D01*
X806220Y84361D01*
X806107Y84212D01*
X805990Y84066D01*
X805870Y83923D01*
X805746Y83783D01*
X805619Y83646D01*
X805488Y83512D01*
X805354Y83381D01*
X805217Y83254D01*
X805077Y83130D01*
X804934Y83010D01*
X804788Y82893D01*
X804639Y82780D01*
X804488Y82670D01*
X804333Y82564D01*
X804177Y82462D01*
X804017Y82364D01*
X803856Y82270D01*
X803692Y82180D01*
X803526Y82094D01*
X803358Y82012D01*
X803188Y81934D01*
X803016Y81860D01*
X802842Y81791D01*
X802667Y81725D01*
X802490Y81665D01*
X802312Y81608D01*
X802132Y81556D01*
X801952Y81508D01*
X801770Y81465D01*
X801587Y81426D01*
X801403Y81392D01*
X801218Y81362D01*
X801033Y81337D01*
X800847Y81317D01*
X800661Y81301D01*
X800474Y81289D01*
X800287Y81282D01*
X800100Y81280D01*
X799913Y81282D01*
X799726Y81289D01*
X799539Y81301D01*
X799353Y81317D01*
X799167Y81337D01*
X798982Y81362D01*
X798797Y81392D01*
X798613Y81426D01*
X798430Y81465D01*
X798248Y81508D01*
X798068Y81556D01*
X797888Y81608D01*
X797710Y81665D01*
X797533Y81725D01*
X797358Y81791D01*
X797184Y81860D01*
X797012Y81934D01*
X796842Y82012D01*
X796674Y82094D01*
X796508Y82180D01*
X796344Y82270D01*
X796183Y82364D01*
X796023Y82462D01*
X795867Y82564D01*
X795712Y82670D01*
X795561Y82780D01*
X795412Y82893D01*
X795266Y83010D01*
X795123Y83130D01*
X794983Y83254D01*
X794846Y83381D01*
X794712Y83512D01*
X794581Y83646D01*
X794454Y83783D01*
X794330Y83923D01*
X794210Y84066D01*
X794093Y84212D01*
X793980Y84361D01*
X793870Y84512D01*
X793764Y84667D01*
X793662Y84823D01*
X793564Y84983D01*
X793470Y85144D01*
X793380Y85308D01*
X793294Y85474D01*
X793212Y85642D01*
X793134Y85812D01*
X793060Y85984D01*
X792991Y86158D01*
X792925Y86333D01*
X792865Y86510D01*
X792808Y86688D01*
X792756Y86868D01*
X792708Y87048D01*
X792665Y87230D01*
X792626Y87413D01*
X792592Y87597D01*
X792562Y87782D01*
X792537Y87967D01*
X792517Y88153D01*
X792501Y88339D01*
X792489Y88526D01*
X792482Y88713D01*
X792480Y88900D01*
D16*
X800100Y88900D03*
D15*
X792480Y477520D02*
X792482Y477707D01*
X792489Y477894D01*
X792501Y478081D01*
X792517Y478267D01*
X792537Y478453D01*
X792562Y478638D01*
X792592Y478823D01*
X792626Y479007D01*
X792665Y479190D01*
X792708Y479372D01*
X792756Y479552D01*
X792808Y479732D01*
X792865Y479910D01*
X792925Y480087D01*
X792991Y480262D01*
X793060Y480436D01*
X793134Y480608D01*
X793212Y480778D01*
X793294Y480946D01*
X793380Y481112D01*
X793470Y481276D01*
X793564Y481437D01*
X793662Y481597D01*
X793764Y481753D01*
X793870Y481908D01*
X793980Y482059D01*
X794093Y482208D01*
X794210Y482354D01*
X794330Y482497D01*
X794454Y482637D01*
X794581Y482774D01*
X794712Y482908D01*
X794846Y483039D01*
X794983Y483166D01*
X795123Y483290D01*
X795266Y483410D01*
X795412Y483527D01*
X795561Y483640D01*
X795712Y483750D01*
X795867Y483856D01*
X796023Y483958D01*
X796183Y484056D01*
X796344Y484150D01*
X796508Y484240D01*
X796674Y484326D01*
X796842Y484408D01*
X797012Y484486D01*
X797184Y484560D01*
X797358Y484629D01*
X797533Y484695D01*
X797710Y484755D01*
X797888Y484812D01*
X798068Y484864D01*
X798248Y484912D01*
X798430Y484955D01*
X798613Y484994D01*
X798797Y485028D01*
X798982Y485058D01*
X799167Y485083D01*
X799353Y485103D01*
X799539Y485119D01*
X799726Y485131D01*
X799913Y485138D01*
X800100Y485140D01*
X800287Y485138D01*
X800474Y485131D01*
X800661Y485119D01*
X800847Y485103D01*
X801033Y485083D01*
X801218Y485058D01*
X801403Y485028D01*
X801587Y484994D01*
X801770Y484955D01*
X801952Y484912D01*
X802132Y484864D01*
X802312Y484812D01*
X802490Y484755D01*
X802667Y484695D01*
X802842Y484629D01*
X803016Y484560D01*
X803188Y484486D01*
X803358Y484408D01*
X803526Y484326D01*
X803692Y484240D01*
X803856Y484150D01*
X804017Y484056D01*
X804177Y483958D01*
X804333Y483856D01*
X804488Y483750D01*
X804639Y483640D01*
X804788Y483527D01*
X804934Y483410D01*
X805077Y483290D01*
X805217Y483166D01*
X805354Y483039D01*
X805488Y482908D01*
X805619Y482774D01*
X805746Y482637D01*
X805870Y482497D01*
X805990Y482354D01*
X806107Y482208D01*
X806220Y482059D01*
X806330Y481908D01*
X806436Y481753D01*
X806538Y481597D01*
X806636Y481437D01*
X806730Y481276D01*
X806820Y481112D01*
X806906Y480946D01*
X806988Y480778D01*
X807066Y480608D01*
X807140Y480436D01*
X807209Y480262D01*
X807275Y480087D01*
X807335Y479910D01*
X807392Y479732D01*
X807444Y479552D01*
X807492Y479372D01*
X807535Y479190D01*
X807574Y479007D01*
X807608Y478823D01*
X807638Y478638D01*
X807663Y478453D01*
X807683Y478267D01*
X807699Y478081D01*
X807711Y477894D01*
X807718Y477707D01*
X807720Y477520D01*
X807718Y477333D01*
X807711Y477146D01*
X807699Y476959D01*
X807683Y476773D01*
X807663Y476587D01*
X807638Y476402D01*
X807608Y476217D01*
X807574Y476033D01*
X807535Y475850D01*
X807492Y475668D01*
X807444Y475488D01*
X807392Y475308D01*
X807335Y475130D01*
X807275Y474953D01*
X807209Y474778D01*
X807140Y474604D01*
X807066Y474432D01*
X806988Y474262D01*
X806906Y474094D01*
X806820Y473928D01*
X806730Y473764D01*
X806636Y473603D01*
X806538Y473443D01*
X806436Y473287D01*
X806330Y473132D01*
X806220Y472981D01*
X806107Y472832D01*
X805990Y472686D01*
X805870Y472543D01*
X805746Y472403D01*
X805619Y472266D01*
X805488Y472132D01*
X805354Y472001D01*
X805217Y471874D01*
X805077Y471750D01*
X804934Y471630D01*
X804788Y471513D01*
X804639Y471400D01*
X804488Y471290D01*
X804333Y471184D01*
X804177Y471082D01*
X804017Y470984D01*
X803856Y470890D01*
X803692Y470800D01*
X803526Y470714D01*
X803358Y470632D01*
X803188Y470554D01*
X803016Y470480D01*
X802842Y470411D01*
X802667Y470345D01*
X802490Y470285D01*
X802312Y470228D01*
X802132Y470176D01*
X801952Y470128D01*
X801770Y470085D01*
X801587Y470046D01*
X801403Y470012D01*
X801218Y469982D01*
X801033Y469957D01*
X800847Y469937D01*
X800661Y469921D01*
X800474Y469909D01*
X800287Y469902D01*
X800100Y469900D01*
X799913Y469902D01*
X799726Y469909D01*
X799539Y469921D01*
X799353Y469937D01*
X799167Y469957D01*
X798982Y469982D01*
X798797Y470012D01*
X798613Y470046D01*
X798430Y470085D01*
X798248Y470128D01*
X798068Y470176D01*
X797888Y470228D01*
X797710Y470285D01*
X797533Y470345D01*
X797358Y470411D01*
X797184Y470480D01*
X797012Y470554D01*
X796842Y470632D01*
X796674Y470714D01*
X796508Y470800D01*
X796344Y470890D01*
X796183Y470984D01*
X796023Y471082D01*
X795867Y471184D01*
X795712Y471290D01*
X795561Y471400D01*
X795412Y471513D01*
X795266Y471630D01*
X795123Y471750D01*
X794983Y471874D01*
X794846Y472001D01*
X794712Y472132D01*
X794581Y472266D01*
X794454Y472403D01*
X794330Y472543D01*
X794210Y472686D01*
X794093Y472832D01*
X793980Y472981D01*
X793870Y473132D01*
X793764Y473287D01*
X793662Y473443D01*
X793564Y473603D01*
X793470Y473764D01*
X793380Y473928D01*
X793294Y474094D01*
X793212Y474262D01*
X793134Y474432D01*
X793060Y474604D01*
X792991Y474778D01*
X792925Y474953D01*
X792865Y475130D01*
X792808Y475308D01*
X792756Y475488D01*
X792708Y475668D01*
X792665Y475850D01*
X792626Y476033D01*
X792592Y476217D01*
X792562Y476402D01*
X792537Y476587D01*
X792517Y476773D01*
X792501Y476959D01*
X792489Y477146D01*
X792482Y477333D01*
X792480Y477520D01*
D16*
X800100Y477520D03*
M02*
