G04 EAGLE Gerber RS-274X export*
G75*
%MOMM*%
%FSLAX34Y34*%
%LPD*%
%INSoldermask Bottom*%
%IPPOS*%
%AMOC8*
5,1,8,0,0,1.08239X$1,22.5*%
G01*
%ADD10R,1.676400X1.676400*%
%ADD11P,1.814519X8X22.500000*%
%ADD12P,2.089446X8X112.500000*%
%ADD13R,1.930400X1.930400*%
%ADD14P,2.089446X8X22.500000*%


D10*
X236900Y108960D03*
D11*
X236900Y134360D03*
X262300Y108960D03*
X262300Y134360D03*
X287700Y108960D03*
X287700Y134360D03*
X313100Y108960D03*
X313100Y134360D03*
X338500Y108960D03*
X338500Y134360D03*
X363900Y108960D03*
X363900Y134360D03*
X389300Y108960D03*
X389300Y134360D03*
X414700Y108960D03*
X414700Y134360D03*
X440100Y108960D03*
X440100Y134360D03*
X465500Y108960D03*
X465500Y134360D03*
X490900Y108960D03*
X490900Y134360D03*
X516300Y108960D03*
X516300Y134360D03*
X541700Y108960D03*
X541700Y134360D03*
X567100Y108960D03*
X567100Y134360D03*
X592500Y108960D03*
X592500Y134360D03*
X617900Y108960D03*
X617900Y134360D03*
X643300Y108960D03*
X643300Y134360D03*
X668700Y108960D03*
X668700Y134360D03*
D10*
X236900Y362960D03*
D11*
X236900Y388360D03*
X262300Y362960D03*
X262300Y388360D03*
X287700Y362960D03*
X287700Y388360D03*
X313100Y362960D03*
X313100Y388360D03*
X338500Y362960D03*
X338500Y388360D03*
X363900Y362960D03*
X363900Y388360D03*
X389300Y362960D03*
X389300Y388360D03*
X414700Y362960D03*
X414700Y388360D03*
X440100Y362960D03*
X440100Y388360D03*
X465500Y362960D03*
X465500Y388360D03*
X490900Y362960D03*
X490900Y388360D03*
X516300Y362960D03*
X516300Y388360D03*
X541700Y362960D03*
X541700Y388360D03*
X567100Y362960D03*
X567100Y388360D03*
X592500Y362960D03*
X592500Y388360D03*
X617900Y362960D03*
X617900Y388360D03*
X643300Y362960D03*
X643300Y388360D03*
X668700Y362960D03*
X668700Y388360D03*
D12*
X457200Y480060D03*
D13*
X431800Y480060D03*
D12*
X482600Y480060D03*
X508000Y480060D03*
X533400Y480060D03*
X558800Y480060D03*
X254000Y480060D03*
D13*
X228600Y480060D03*
D12*
X279400Y480060D03*
X304800Y480060D03*
X330200Y480060D03*
X355600Y480060D03*
D14*
X101600Y353060D03*
D13*
X101600Y378460D03*
D14*
X101600Y327660D03*
X101600Y302260D03*
X800100Y353060D03*
D13*
X800100Y378460D03*
D14*
X800100Y327660D03*
X800100Y302260D03*
X800100Y276860D03*
M02*
