M48
;GenerationSoftware,Autodesk,EAGLE,9.6.2*%
;CreationDate,2024-12-20T12:52:12Z*%
FMAT,2
ICI,OFF
METRIC,TZ,000.000
T2C0.813
T1C0.889
%
G90
M71
T1
X23690Y10896
X23690Y13436
X26230Y10896
X26230Y13436
X28770Y10896
X28770Y13436
X31310Y10896
X31310Y13436
X33850Y10896
X33850Y13436
X36390Y10896
X36390Y13436
X38930Y10896
X38930Y13436
X41470Y10896
X41470Y13436
X44010Y10896
X44010Y13436
X46550Y10896
X46550Y13436
X49090Y10896
X49090Y13436
X51630Y10896
X51630Y13436
X54170Y10896
X54170Y13436
X56710Y10896
X56710Y13436
X59250Y10896
X59250Y13436
X61790Y10896
X61790Y13436
X64330Y10896
X64330Y13436
X66870Y10896
X66870Y13436
X23690Y36296
X23690Y38836
X26230Y36296
X26230Y38836
X28770Y36296
X28770Y38836
X31310Y36296
X31310Y38836
X33850Y36296
X33850Y38836
X36390Y36296
X36390Y38836
X38930Y36296
X38930Y38836
X41470Y36296
X41470Y38836
X44010Y36296
X44010Y38836
X46550Y36296
X46550Y38836
X49090Y36296
X49090Y38836
X51630Y36296
X51630Y38836
X54170Y36296
X54170Y38836
X56710Y36296
X56710Y38836
X59250Y36296
X59250Y38836
X61790Y36296
X61790Y38836
X64330Y36296
X64330Y38836
X66870Y36296
X66870Y38836
T2
X45720Y48006
X43180Y48006
X48260Y48006
X50800Y48006
X53340Y48006
X55880Y48006
X25400Y48006
X22860Y48006
X27940Y48006
X30480Y48006
X33020Y48006
X35560Y48006
X10160Y35306
X10160Y37846
X10160Y32766
X10160Y30226
X80010Y35306
X80010Y37846
X80010Y32766
X80010Y30226
X80010Y27686
M30